<svg xmlns="http://www.w3.org/2000/svg" width="25" height="25" viewBox="0 0 25 25" fill="none">
  <g clip-path="url(#clip0_97_358)">
    <path d="M12.5004 0C9.16133 0 6.02227 1.30078 3.66172 3.66172C1.30039 6.02227 0 9.16133 0 12.5C0 15.8387 1.30039 18.9777 3.66172 21.3383C6.02227 23.6996 9.16133 25 12.5004 25C15.8391 25 18.9781 23.6992 21.3391 21.3383C23.7004 18.9773 25.0008 15.8387 25.0008 12.5C25.0008 9.16133 23.7004 6.02227 21.3391 3.66172C18.9781 1.30039 15.8391 0 12.5004 0ZM20.2344 20.2336C18.1684 22.2996 15.4219 23.4375 12.5004 23.4375C9.57891 23.4375 6.83203 22.2996 4.76641 20.2332C2.70039 18.1676 1.5625 15.4215 1.5625 12.5C1.5625 9.57852 2.70039 6.83242 4.76641 4.76641C6.83203 2.70039 9.57891 1.5625 12.5004 1.5625C15.4219 1.5625 18.1684 2.70039 20.2344 4.7668C22.3004 6.83242 23.4383 9.57891 23.4383 12.5C23.4383 15.4211 22.3004 18.1676 20.2344 20.2336Z" fill="#2D5366"/>
    <path d="M19.5316 11.7188H13.2816V5.46875C13.2816 5.0375 12.9316 4.6875 12.5004 4.6875C12.0691 4.6875 11.7191 5.0375 11.7191 5.46875V11.7188H5.46912C5.03787 11.7188 4.68787 12.0687 4.68787 12.5C4.68787 12.9312 5.03787 13.2812 5.46912 13.2812H11.7191V19.5312C11.7191 19.9625 12.0691 20.3125 12.5004 20.3125C12.9316 20.3125 13.2816 19.9625 13.2816 19.5312V13.2812H19.5316C19.9629 13.2812 20.3129 12.9312 20.3129 12.5C20.3129 12.0687 19.9629 11.7188 19.5316 11.7188Z" fill="#2D5366"/>
  </g>
  <defs>
    <clipPath id="clip0_97_358">
      <rect width="25" height="25" fill="white"/>
    </clipPath>
  </defs>
</svg>