<svg width="63" height="45" viewBox="0 0 63 45" fill="none" xmlns="http://www.w3.org/2000/svg">
<path d="M48.5194 19.9958H19.479L28.0756 11.2744C29.0593 10.2813 29.0593 8.68384 28.0756 7.73398C27.6052 7.25905 26.9636 7 26.3221 7C25.6378 7 25.039 7.25905 24.5686 7.73398L11.7378 20.7298C10.7541 21.7228 10.7541 23.3203 11.7378 24.2702L24.5686 37.266C25.039 37.7409 25.6378 38 26.3221 38C27.0064 38 27.6052 37.7409 28.0756 37.266C29.0593 36.273 29.0593 34.6755 28.0756 33.7256L19.479 25.0042H48.5194C49.888 25.0042 51 23.8816 51 22.5C51 21.1184 49.888 19.9958 48.5194 19.9958Z" fill="#FCF5E8"/>
</svg>
